<svg version="1.0" xmlns="http://www.w3.org/2000/svg" width="40" height="40" viewBox="0 0 30 30"><path d="M9.7 2.1C6.6 3.9 4.8 9.5 5.9 13.8 7.3 19 13.2 28.5 15 28.5c1.8 0 7.7-9.5 9.1-14.7 1.1-4.4-.7-10-3.9-11.7C17.6.7 12.1.7 9.7 2.1zm10.7 2c2 1.6 2.6 2.9 2.6 6 0 4.1-2.6 10.6-6 14.9l-2 2.5-2-2.5c-3.5-4.4-6-10.5-6-14.7 0-3.3.6-4.6 2.6-6.2C11.1 2.9 13.5 2 15 2c1.5 0 3.9.9 5.4 2.1z"/><path d="M11.4 9.5c-.7 2.9 1 5.5 3.6 5.5s4.3-2.6 3.6-5.5C18.1 7.5 17.3 7 15 7s-3.1.5-3.6 2.5zm6.3.1c.3.8-.2 2.3-1.1 3.2-1.5 1.5-1.7 1.5-3.2 0C11.3 10.7 12.3 8 15 8c1.1 0 2.3.7 2.7 1.6z"/></svg>