<?xml version="1.0" standalone="no"?>
<!DOCTYPE svg PUBLIC "-//W3C//DTD SVG 20010904//EN"
 "http://www.w3.org/TR/2001/REC-SVG-20010904/DTD/svg10.dtd">
<svg version="1.0" xmlns="http://www.w3.org/2000/svg"
 width="30.000000pt" height="30.000000pt" viewBox="0 0 30.000000 30.000000"
 preserveAspectRatio="xMidYMid meet">

<g transform="translate(0.000000,30.000000) scale(0.100000,-0.100000)"
fill="#000000" stroke="none">
<path d="M97 279 c-31 -18 -49 -74 -38 -117 14 -52 73 -147 91 -147 18 0 77
95 91 147 11 44 -7 100 -39 117 -26 14 -81 14 -105 0z m107 -20 c20 -16 26
-29 26 -60 0 -41 -26 -106 -60 -149 l-20 -25 -20 25 c-35 44 -60 105 -60 147
0 33 6 46 26 62 15 12 39 21 54 21 15 0 39 -9 54 -21z"/>
<path d="M114 205 c-7 -29 10 -55 36 -55 26 0 43 26 36 55 -5 20 -13 25 -36
25 -23 0 -31 -5 -36 -25z m63 -1 c3 -8 -2 -23 -11 -32 -15 -15 -17 -15 -32 0
-21 21 -11 48 16 48 11 0 23 -7 27 -16z"/>
</g>
</svg>
