<?xml version="1.0" standalone="no"?>
<!DOCTYPE svg PUBLIC "-//W3C//DTD SVG 20010904//EN"
 "http://www.w3.org/TR/2001/REC-SVG-20010904/DTD/svg10.dtd">
<svg version="1.0" xmlns="http://www.w3.org/2000/svg"
 width="30.000000pt" height="30.000000pt" viewBox="0 0 30.000000 30.000000"
 preserveAspectRatio="xMidYMid meet">

<g transform="translate(0.000000,30.000000) scale(0.100000,-0.100000)"
fill="#000000" stroke="none">
<path d="M0 150 l0 -110 150 0 150 0 0 110 0 110 -150 0 -150 0 0 -110z m284
91 c7 -10 -115 -111 -133 -111 -18 0 -141 102 -135 112 7 11 261 10 268 -1z
m-250 -40 c3 -4 30 -27 61 -51 l55 -42 67 52 68 52 3 -68 c2 -37 1 -73 -2 -81
-5 -11 -33 -13 -138 -11 l-133 3 -3 78 c-3 69 6 95 22 68z"/>
</g>
</svg>
