<?xml version="1.0" standalone="no"?>
<!DOCTYPE svg PUBLIC "-//W3C//DTD SVG 20010904//EN"
 "http://www.w3.org/TR/2001/REC-SVG-20010904/DTD/svg10.dtd">
<svg version="1.0" xmlns="http://www.w3.org/2000/svg"
 width="30.000000pt" height="30.000000pt" viewBox="0 0 30.000000 30.000000"
 preserveAspectRatio="xMidYMid meet">

<g transform="translate(0.000000,30.000000) scale(0.100000,-0.100000)"
fill="#000000" stroke="none">
<path d="M45 255 c-22 -21 -25 -33 -25 -103 0 -117 11 -127 130 -127 119 0
130 10 130 127 0 70 -3 82 -25 103 -22 22 -32 25 -105 25 -73 0 -83 -3 -105
-25z m203 -7 c16 -16 16 -180 0 -196 -16 -16 -180 -16 -196 0 -16 16 -16 180
0 196 16 16 180 16 196 0z"/>
<path d="M75 220 c-22 -35 50 -133 106 -145 34 -8 49 0 49 25 0 21 -34 45 -51
34 -14 -9 -51 27 -44 44 13 34 -42 72 -60 42z m43 -37 c4 -38 27 -60 67 -65
19 -2 30 -9 30 -18 0 -20 -42 -15 -75 8 -29 21 -64 87 -55 102 12 19 30 4 33
-27z"/>
</g>
</svg>
