<svg version="1.0" xmlns="http://www.w3.org/2000/svg" width="40" height="40" viewBox="0 0 30 30"><path d="M4.5 4.5C2.3 6.6 2 7.8 2 14.8c0 11.7 1.1 12.7 13 12.7s13-1 13-12.7c0-7-.3-8.2-2.5-10.3C23.3 2.3 22.3 2 15 2s-8.3.3-10.5 2.5zm20.3.7c1.6 1.6 1.6 18 0 19.6-1.6 1.6-18 1.6-19.6 0-1.6-1.6-1.6-18 0-19.6 1.6-1.6 18-1.6 19.6 0z"/><path d="M7.5 8c-2.2 3.5 5 13.3 10.6 14.5 3.4.8 4.9 0 4.9-2.5 0-2.1-3.4-4.5-5.1-3.4-1.4.9-5.1-2.7-4.4-4.4C14.8 8.8 9.3 5 7.5 8zm4.3 3.7c.4 3.8 2.7 6 6.7 6.5 1.9.2 3 .9 3 1.8 0 2-4.2 1.5-7.5-.8-2.9-2.1-6.4-8.7-5.5-10.2 1.2-1.9 3-.4 3.3 2.7z"/></svg>